<mxfile host="app.diagrams.net" modified="2022-07-06T09:19:16.602Z" agent="5.0 (Macintosh; Intel Mac OS X 10_15_7) AppleWebKit/537.36 (KHTML, like Gecko) Chrome/103.0.0.0 Safari/537.36" etag="kwizAvzWT_qnxHEYWzhy" version="18.0.7" type="github">
  <diagram id="E3_-1Qw-FZnbnzQSRtXV" name="Page-1">
    <mxGraphModel dx="1346" dy="769" grid="1" gridSize="10" guides="1" tooltips="1" connect="1" arrows="1" fold="1" page="1" pageScale="1" pageWidth="827" pageHeight="1169" math="0" shadow="0">
      <root>
        <mxCell id="0" />
        <mxCell id="1" parent="0" />
      </root>
    </mxGraphModel>
  </diagram>
</mxfile>
